<svg xmlns="http://www.w3.org/2000/svg" viewBox="0 0 1000 500">
  <path d="M 933,183 L 924,254 L 859,254 L 882,291 L 843,402 L 821,431 L 720,435 L 662,475 L 566,461 L 401,417 L 375,357 L 261,387 L 247,420 L 177,395 L 118,390 L 66,359 L 84,317 L 79,286 L 173,325 L 189,279 L 291,286 L 374,256 L 429,261 L 465,296 L 476,267 L 460,154 L 501,133 L 542,53 L 628,109 L 693,38 L 733,25 L 823,78 L 878,69 L 931,101 L 921,123 Z" fill="none" stroke="white" stroke-width="4" stroke-linejoin="round" stroke-linecap="round"/>
</svg>
