<svg xmlns="http://www.w3.org/2000/svg" viewBox="0 0 900 900">
  <path d="M 512,113 L 551,152 L 580,145 L 630,182 L 643,190 L 659,188 L 686,209 L 767,224 L 738,280 L 731,339 L 716,353 L 690,345 L 692,366 L 651,412 L 650,449 L 677,436 L 696,472 L 694,495 L 711,526 L 691,551 L 705,614 L 736,624 L 730,660 L 679,706 L 567,684 L 485,711 L 478,760 L 413,770 L 349,733 L 329,751 L 225,714 L 202,682 L 231,633 L 242,470 L 184,384 L 142,343 L 56,311 L 50,252 L 123,234 L 218,255 L 200,162 L 254,197 L 385,134 L 402,67 L 451,50 L 460,79 L 486,80 Z" fill="none" stroke="white" stroke-width="4" stroke-linejoin="round" stroke-linecap="round"/>
  <path d="M 850,786 L 831,849 L 805,832 L 792,778 L 804,747 L 840,716 Z" fill="none" stroke="white" stroke-width="4" stroke-linejoin="round" stroke-linecap="round"/>
</svg>
