<svg xmlns="http://www.w3.org/2000/svg" viewBox="0 0 900 1080">
  <path d="M 434,91 L 531,115 L 524,160 L 540,199 L 486,186 L 431,218 L 434,264 L 426,290 L 448,336 L 512,382 L 547,458 L 622,532 L 676,532 L 692,552 L 673,570 L 734,603 L 785,631 L 843,679 L 850,696 L 837,729 L 799,686 L 740,671 L 712,730 L 761,764 L 753,812 L 724,818 L 688,896 L 659,903 L 660,876 L 674,826 L 688,806 L 662,753 L 641,707 L 613,696 L 592,656 L 549,639 L 519,603 L 469,597 L 415,555 L 353,496 L 307,443 L 285,352 L 251,341 L 196,311 L 165,324 L 125,366 L 97,373 L 105,333 L 68,321 L 50,250 L 74,222 L 54,188 L 56,162 L 86,182 L 119,177 L 157,146 L 169,161 L 201,158 L 216,121 L 266,132 L 296,117 L 302,79 L 343,92 L 351,75 L 419,59 Z" fill="none" stroke="white" stroke-width="4" stroke-linejoin="round" stroke-linecap="round"/>
  <path d="M 218,601 L 259,666 L 249,787 L 218,781 L 190,812 L 165,788 L 162,677 L 146,624 L 184,629 Z" fill="none" stroke="white" stroke-width="4" stroke-linejoin="round" stroke-linecap="round"/>
  <path d="M 648,874 L 624,946 L 634,974 L 620,1021 L 567,987 L 533,977 L 437,930 L 447,883 L 527,892 L 596,882 Z" fill="none" stroke="white" stroke-width="4" stroke-linejoin="round" stroke-linecap="round"/>
</svg>
